<svg version="1.1" id="Layer_1" xmlns="http://www.w3.org/2000/svg" xmlns:xlink="http://www.w3.org/1999/xlink" x="0px" y="0px" viewBox="0 0 195.5392 250.1512" enable-background="new 0 0 195.5392 250.1512" xml:space="preserve">
<g>
<path d="M35.2487,237.8856c-2.0786,4.209-0.3511,9.3066,3.8579,11.3848c1.21,0.5977,2.4932,0.8809,3.7573,0.8809
		c3.1328,0,6.1465-1.7393,7.6279-4.7383l9.8712-19.9896l-15.4487-7.1112L35.2487,237.8856z" id="id_101" style="fill: rgb(255, 255, 255);"></path>
<path d="M186.6521,214.9647l-16.1175,5.4127l8.4846,24.0951c1.2305,3.4941,4.5122,5.6787,8.0176,5.6787
		c0.9365,0,1.8896-0.1553,2.8232-0.4844c4.4277-1.5596,6.7534-6.4131,5.1943-10.8408L186.6521,214.9647z" id="id_102" style="fill: rgb(255, 255, 255);"></path>
<path d="M59.2566,186.0575c2.1691,1.9723,6.3487,5.1247,13.7322,8.5554c0,0-11.3484-0.3568-18.1451-4.5991
		c-0.3143,0.4631-0.6037,0.9448-0.8535,1.451l-7.8086,15.8135c-1.8047-0.5918-3.8184,0.2373-4.6309,2.0015
		c-0.873,1.8975-0.0352,4.165,1.8623,5.0386l21.751,10.0122c1.8975,0.8735,4.165,0.0356,5.0381-1.8618
		c0.8545-1.8555,0.0645-4.0552-1.7441-4.9692l5.7266-11.5967l36.5117-19.0205c1.2598-0.6563,2.3477-1.5093,3.2666-2.4897
		c0.8984,0.6304,1.8877,1.1587,2.9736,1.5405l42.793,15.0513l3.7432,10.6299c-1.7354,0.7988-2.6445,2.7935-2.0234,4.6431
		c0.665,1.9805,2.8291,3.0566,4.8096,2.3916l22.6992-7.623c1.9805-0.665,3.0566-2.8296,2.3916-4.8101
		c-0.6484-1.9297-2.7188-2.9878-4.6572-2.4258l-5.8037-16.4819c-0.2803-0.7958-0.6487-1.5467-1.077-2.2561
		c-6.1316,4.7786-16.1784,6.8295-16.1784,6.8295c6.8234-4.7188,10.4224-8.5941,12.1917-10.8901
		c-0.7569-0.4731-1.5685-0.8688-2.4265-1.1706l-38.3495-13.4885l-0.4677-3.3445l-7.2506-51.8599l24.0939-43.5909
		c1.4028-2.5371,1.3228-5.6348-0.209-8.0967c-1.5317-2.4609-4.2695-3.8965-7.1714-3.7646l-39.209,1.8594
		c-0.5307,0.0253-1.0458,0.1043-1.5428,0.2269c1.8431,2.4401,3.5202,5.2078,4.7614,7.4165
		c0.3608,0.0565,0.6727,0.2441,0.8901,0.5146c4.0042-0.3239,8.0239,1.6576,10.1008,5.3907
		c0.3168,0.5695,0.5687,1.1593,0.7704,1.7593l10.6754-0.5062L117.204,96.3746c1.066,5.3174,2.3764,14.7034,1.2225,25.1497
		c-2.3268,21.0643-13.6005,36.2575-32.5919,44.0175l0.5984,2.3187c-18.171-5.4004-31.3592,5.8839-42.3312,15.2898
		c-8.293,7.1084-15.4512,13.248-23.0693,11.8457c-7.9922-1.4697-8.1343-6.2793-6.5532-16.9023
		c0.8804-5.9141,1.7905-12.0283-1.686-16.0176c-2.0132-2.3086-5.1772-3.4434-9.3306-3.4131
		c-1.9326,0.0205-3.4829,1.6045-3.4624,3.5371c0.021,1.9326,1.5845,3.4727,3.5376,3.4629c1.4043-0.0166,3.2251,0.1484,3.9785,1.0127
		c1.354,1.5537,0.6558,6.2471,0.0396,10.3877c-1.3022,8.748-3.27,21.9697,12.21,24.8174c1.1753,0.2158,2.3296,0.3184,3.4658,0.3174
		c9.4019,0,17.5342-6.9697,25.4253-13.7334c10.3387-8.8615,20.2342-17.3343,33.6831-14.4353l-9.5538,4.977l-13.4719,7.018
		C59.2946,186.0347,59.2763,186.0471,59.2566,186.0575z" id="id_103" style="fill: rgb(255, 255, 255);"></path>
<path d="M111.4455,120.9618c0.6006-5.2792,0.4917-10.3159,0.1122-14.5897c-2.0131,2.3064-4.4329,4.3117-7.2381,5.8724
		c-8.9613,4.9856-19.685,4.4125-27.929-1.0174l-19.1379,5.8088l6.9232-10.9124c-1.0301-0.8287-1.9192-1.8585-2.5937-3.0708
		c-2.077-3.7333-1.6408-8.1935,0.7454-11.425c-0.1153-0.3278-0.1102-0.6921,0.0326-1.0287c-1.0616-1.9256-1.97-3.7117-2.7188-5.3518
		c-1.1427,0.6277-2.1486,1.5425-2.8965,2.7214l-24.5503,38.6973c-1.7915,2.8252-1.6372,6.4658,0.3872,9.1279
		c1.5391,2.0244,3.9126,3.1582,6.3691,3.1582c0.7734,0,1.5557-0.1123,2.3228-0.3447l34.8776-10.5863l7.9149,30.6683
		C100.1557,151.8057,109.3786,139.1329,111.4455,120.9618z" id="id_104" style="fill: rgb(255, 255, 255);"></path>
<path d="M29.7795,141.3339c0.4385,0,0.8389-0.291,0.9619-0.7334c0.1465-0.5313-0.165-1.0811-0.6953-1.2305
		c-0.0215-0.0059-2.1641-0.627-3.1528-2.4648c-0.6328-1.1777-0.6758-2.6426-0.1274-4.3555c0.168-0.5264-0.1221-1.0889-0.6479-1.2568
		c-0.5264-0.167-1.0889,0.1221-1.2573,0.6475c-0.7231,2.2598-0.6279,4.2568,0.2837,5.9346c1.4067,2.5908,4.252,3.3906,4.3726,3.4238
		C29.6047,141.3231,29.6926,141.3339,29.7795,141.3339z" id="id_105" style="fill: rgb(255, 255, 255);"></path>
<path d="M26.8928,145.1649c0.4194,0,0.8105-0.2656,0.9492-0.6855c0.1738-0.5244-0.1108-1.0908-0.6353-1.2637
		c-0.0332-0.0117-3.3672-1.1445-4.8711-4.2461c-0.9834-2.0264-0.9673-4.4717,0.0474-7.2676
		c0.1885-0.5186-0.0796-1.0928-0.5986-1.2813c-0.5181-0.1826-1.0928,0.0801-1.2813,0.5996
		c-1.2061,3.3223-1.1948,6.291,0.0327,8.8223c1.8687,3.8535,5.873,5.2158,6.043,5.2715
		C26.6828,145.1483,26.7888,145.1649,26.8928,145.1649z" id="id_106" style="fill: rgb(255, 255, 255);"></path>
<path d="M179.322,177.6766c-0.0239,0.5498,0.4038,1.0156,0.9536,1.042c0.0225,0.001,2.25,0.125,3.626,1.6943
		c0.8813,1.0039,1.2524,2.4229,1.103,4.2148c-0.0459,0.5508,0.3633,1.0342,0.9136,1.0791c0.0283,0.0029,0.0562,0.0039,0.084,0.0039
		c0.5146,0,0.9521-0.3945,0.9956-0.917c0.1968-2.3643-0.3442-4.2891-1.6094-5.7188c-1.9531-2.209-4.9053-2.3496-5.0298-2.3545
		C179.7897,176.6669,179.3459,177.1259,179.322,177.6766z" id="id_107" style="fill: rgb(255, 255, 255);"></path>
<path d="M190.3371,185.5829c0.041,0.0059,0.082,0.0078,0.1226,0.0078c0.498,0,0.9292-0.3721,0.9912-0.8789
		c0.4287-3.5088-0.249-6.3984-2.0142-8.5898c-2.6865-3.335-6.8945-3.7627-7.0723-3.7793c-0.5625-0.0566-1.0342,0.3525-1.0869,0.9004
		c-0.0527,0.5488,0.3501,1.0371,0.8984,1.0908c0.0356,0.0039,3.5718,0.3818,5.7158,3.0586
		c1.4038,1.7529,1.9336,4.1338,1.5737,7.0771C189.3986,185.0175,189.7888,185.5165,190.3371,185.5829z" id="id_108" style="fill: rgb(255, 255, 255);"></path>
<path d="M152.5417,53.4442c-0.21,0.5088,0.0327,1.0928,0.5405,1.3057c0.021,0.0078,2.0728,0.8848,2.8311,2.8291
		c0.4858,1.2451,0.3506,2.7041-0.4009,4.3379c-0.231,0.502-0.0117,1.0957,0.4902,1.3262c0.1353,0.0625,0.2773,0.0918,0.4175,0.0918
		c0.3784,0,0.7402-0.2158,0.9087-0.582c0.9922-2.1553,1.1397-4.1484,0.4385-5.9248c-1.0825-2.7422-3.8096-3.8818-3.9253-3.9287
		C153.3342,52.6903,152.7517,52.9344,152.5417,53.4442z" id="id_109" style="fill: rgb(255, 255, 255);"></path>
<path d="M160.1989,64.6346c0.145,0.0742,0.2998,0.1084,0.4517,0.1084c0.3647,0,0.7163-0.2002,0.8926-0.5479
		c1.6001-3.1514,1.9492-6.0996,1.0371-8.7617c-1.3882-4.0518-5.1978-5.8887-5.3594-5.9648
		c-0.498-0.2363-1.0918-0.0225-1.3286,0.4756s-0.0244,1.0938,0.4727,1.332c0.0322,0.0156,3.2271,1.5762,4.3296,4.8242
		c0.7222,2.126,0.4077,4.5459-0.9346,7.1904C159.51,63.7831,159.7063,64.3846,160.1989,64.6346z" id="id_110" style="fill: rgb(255, 255, 255);"></path>
<polygon points="93.5883,0 88.8819,22.5237 97.5861,21.0521 91.522,41.3989 92.4625,41.6367 102.3796,18.1337 92.6248,19.0897 
		97.7418,0.8546 	" id="id_111" style="fill: rgb(255, 255, 255);"></polygon>
<polygon points="98.7296,45.9921 115.8902,32.9081 108.3223,29.51 119.7444,18.2735 117.0556,15.8998 104.1323,30.4585 
		111.1423,33.0369 98.14,45.4243 	" id="id_112" style="fill: rgb(255, 255, 255);"></polygon>
<polygon points="79.7818,26.0712 82.5236,43.5403 83.3113,43.3851 82.3358,22.1577 75.3446,26.3749 72.6485,10.8331 
		69.2164,11.6805 73.7643,30.299 	" id="id_113" style="fill: rgb(255, 255, 255);"></polygon>
<path d="M23.9451,69.2794l0.4532,1.7269c5.1362-1.3494,8.3241-3.7236,9.4756-7.0562c1.8969-5.4883-2.5157-11.403-2.7049-11.6523
		l-1.4227,1.0783c0.0401,0.0532,4.0291,5.3938,2.4408,9.9908C31.2422,66.1016,28.4693,68.0908,23.9451,69.2794z" id="id_114" style="fill: rgb(255, 255, 255);"></path>
<path d="M40.6585,62.0916c1.2867,0.7201,2.7259,1.0797,4.3115,1.0797c2.2526,0,4.7997-0.7261,7.6171-2.1763l-0.8177-1.5874
		c-4.2322,2.178-7.6755,2.5568-10.234,1.1293c-4.3193-2.4116-4.8973-9.2699-4.9025-9.3392l-1.7801,0.1351
		C34.8773,51.6528,35.5023,59.2062,40.6585,62.0916z" id="id_115" style="fill: rgb(255, 255, 255);"></path>
<path d="M53.2514,64.7787c-5.3454,0.9406-8.6981,3.0489-9.9655,6.2668c-2.1688,5.5084,2.7015,12.0589,2.9098,12.3353l1.4253-1.0748
		c-0.0453-0.0598-4.478-6.0354-2.6718-10.6106c1.0251-2.5977,3.9227-4.3333,8.6108-5.1584L53.2514,64.7787z" id="id_116" style="fill: rgb(255, 255, 255);"></path>
<path d="M36.0018,74.5912c4.322,2.3249,4.7256,9.7894,4.7291,9.8648l1.7835-0.0828c-0.0157-0.3474-0.4507-8.5428-5.6618-11.3511
		c-3.0833-1.6633-7.0914-1.053-11.9094,1.8097l0.9118,1.5351C30.095,73.8472,33.507,73.2492,36.0018,74.5912z" id="id_117" style="fill: rgb(255, 255, 255);"></path>
<path d="M114.3293,82.2813c2.998-2.2301,3.9598-6.3848,2.0937-9.739c-1.9021-3.4189-6.0612-4.7874-9.5812-3.2811
		c-0.2094-0.4078-0.4244-0.8185-0.6472-1.2335c-5.8566,0.2468-11.7285,2.8751-15.0098,4.3482
		c-0.8976,0.4028-1.6074,0.7212-2.1248,0.9055c-3.6429,1.2949-5.1934-1.4921-5.8554-2.6819
		c-1.1351-2.0402-0.4707-4.5838,1.4803-5.6693c1.951-1.0854,4.4615-0.3082,5.5966,1.732c0.3842,0.6905,0.1349,1.5617-0.5551,1.9456
		c-0.69,0.3839-1.5616,0.1362-1.9458-0.5543c-0.3682-0.6618-1.1329-0.9418-1.705-0.6235s-0.7384,1.1163-0.3702,1.7781
		c0.8149,1.4648,1.205,1.8011,2.3967,1.3772c0.4085-0.1453,1.1049-0.4576,1.9114-0.8195c3.2053-1.4388,8.7462-3.9177,14.629-4.4953
		c-3.8324-6.4968-7.7711-10.9789-9.1102-10.2333c-0.8359,0.4648-0.4736,2.8657,0.7637,6.2246
		c-4.4043-7.0713-8.6914-11.7451-10.2305-10.8892c-1.1309,0.6289-0.5107,4.0898,1.3584,8.8423
		c-4.3965-6.9189-8.5986-11.415-10.1387-10.5586c-1.3213,0.7349-0.3242,5.2158,2.2324,11.1333
		c-4.5254-7.1333-8.8574-11.7764-10.4424-10.8945s0.0762,7.0112,3.751,14.6177c-3.6797-5.2925-6.9619-8.5024-8.2832-7.7676
		c-1.5391,0.8564,0.0654,6.7983,3.627,14.1816c-3.0537-4.0938-5.667-6.4453-6.7978-5.8164
		c-1.5391,0.8564,0.1719,6.9639,3.8584,14.4346c-2.2021-2.8223-4.0508-4.396-4.8867-3.9312
		c-1.3391,0.7451,0.3926,6.4547,3.892,13.137c3.592-4.6938,8.6199-8.095,11.5326-10.0598c0.7327-0.4945,1.3652-0.9215,1.704-1.192
		c0.9886-0.7891,0.9085-1.2977,0.0936-2.7626c-0.3682-0.6619-1.1339-0.9413-1.7061-0.623s-0.7374,1.1157-0.3691,1.7775
		c0.3842,0.6905,0.1349,1.5617-0.5551,1.9456c-0.6899,0.3839-1.5616,0.1362-1.9458-0.5543
		c-1.1351-2.0402-0.4717-4.5832,1.4792-5.6686c1.951-1.0854,4.4626-0.3087,5.5976,1.7314c0.662,1.1899,2.2128,3.9774-0.8085,6.3894
		c-0.4294,0.3425-1.0742,0.7776-1.8897,1.328c-2.981,2.0109-8.3113,5.615-11.6084,10.4611
		c0.2352,0.4081,0.4706,0.8073,0.7067,1.2001c-3.1351,2.1964-4.1653,6.4519-2.2632,9.8708
		c1.8661,3.3542,5.9034,4.7277,9.3792,3.3561c7.3399,7.9444,19.408,10.1638,29.2781,4.6725
		C112.7321,104.1312,117.2094,92.7068,114.3293,82.2813z M101.4934,107.0921c-5.8036,3.2288-13.1259,1.1415-16.3547-4.662
		c-0.2681-0.4818-0.4861-0.9767-0.6818-1.4763c-3.0798,0.022-6.076-1.593-7.6788-4.474c-2.3379-4.2021-0.8265-9.5039,3.3756-11.8417
		c2.9178-1.6234,6.3637-1.3875,8.9814,0.3132c-0.0647-3.1209,1.5518-6.1733,4.4696-7.7967
		c4.2021-2.3378,9.5038-0.8265,11.8417,3.3756c1.5898,2.8575,1.3958,6.2217-0.2101,8.8184c0.3304,0.4389,0.6444,0.8953,0.9191,1.389
		C109.3844,96.541,107.2971,103.8633,101.4934,107.0921z" id="id_118" style="fill: rgb(255, 255, 255);"></path>
<path d="M85.3768,95.8322c2.0128-0.4272,3.3026-2.4122,2.8754-4.425c-0.4272-2.0129-7.7277-0.4632-7.3004,1.5496
		C81.379,94.9697,83.364,96.2595,85.3768,95.8322z" id="id_119" style="fill: rgb(255, 255, 255);"></path>
<path d="M100.3624,87.4951c1.4243-1.485,1.375-3.8517-0.11-5.2761c-1.485-1.4243-6.6511,3.9617-5.166,5.3861
		C96.5713,89.0294,98.938,88.9801,100.3624,87.4951z" id="id_120" style="fill: rgb(255, 255, 255);"></path>
<path d="M92.8417,103.5544c0.476-0.2648,2.4652-1.8564,4.8978-3.2097c2.4326-1.3534,4.8338-2.2045,5.3098-2.4693
		c0.476-0.2648,0.9762,0.6343,1.6902,0.2371s-1.6489-4.831-2.7696-6.2852c-1.1207-1.4542-7.8198,2.0651-7.8198,2.0651
		s-6.523,3.8369-5.8783,5.5559c0.6447,1.719,3.1662,6.0645,3.8802,5.6673C92.8659,104.7183,92.3657,103.8192,92.8417,103.5544z" id="id_121" style="fill: rgb(255, 255, 255);"></path>
<polygon points="76.8776,208.8583 76.673,208.9637 74.279,215.2343 75.4001,215.662 77.6301,209.8212 110.4533,192.9725 
		109.9055,191.9042 	" id="id_122" style="fill: rgb(255, 255, 255);"></polygon>
<polygon points="80.1677,211.4725 78.8483,214.9012 79.9685,215.3329 81.1267,212.3221 104.5437,199.8768 103.9802,198.8163 	" id="id_123" style="fill: rgb(255, 255, 255);"></polygon>
<polygon points="79.4387,153.0389 73.8298,131.6239 46.1477,140.2323 46.5041,141.3788 72.987,133.1434 78.2775,153.3436 	" id="id_124" style="fill: rgb(255, 255, 255);"></polygon>
<polygon points="61.4055,138.5038 61.7971,139.6385 70.7585,136.5477 74.2307,150.201 75.3938,149.9061 71.6003,134.9891 	" id="id_125" style="fill: rgb(255, 255, 255);"></polygon>
<polygon points="147.5861,83.4608 146.5334,82.8846 131.4099,110.4735 135.7321,140.3964 136.9196,140.2245 132.655,110.6981 	" id="id_126" style="fill: rgb(255, 255, 255);"></polygon>
<polygon points="147.2043,89.3075 135.0983,109.743 138.0983,132.5165 139.2878,132.3602 136.3425,109.9969 148.2365,89.9188 	" id="id_127" style="fill: rgb(255, 255, 255);"></polygon>
<rect x="25.6496" y="101.4807" transform="matrix(0.5483 -0.8363 0.8363 0.5483 -66.1586 81.675)" width="33.7563" height="1.2004" id="id_128" style="fill: rgb(255, 255, 255);"></rect>
<rect x="29.1344" y="101.2611" transform="matrix(0.5704 -0.8214 0.8214 0.5704 -67.0027 75.6138)" width="19.3004" height="1.1993" id="id_129" style="fill: rgb(255, 255, 255);"></rect>
<rect x="106.7479" y="52.0216" transform="matrix(0.9989 -0.0479 0.0479 0.9989 -2.3787 5.9421)" width="32.1839" height="1.2006" id="id_130" style="fill: rgb(255, 255, 255);"></rect>
<rect x="114.4323" y="48.5538" transform="matrix(0.9987 -0.0512 0.0512 0.9987 -2.3555 6.4211)" width="19.2642" height="1.2008" id="id_131" style="fill: rgb(255, 255, 255);"></rect>
<rect x="155.7078" y="153.8801" transform="matrix(0.3287 -0.9444 0.9444 0.3287 -55.3465 261.5424)" width="1.1995" height="31.6488" id="id_132" style="fill: rgb(255, 255, 255);"></rect>
<rect x="156.657" y="155.1634" transform="matrix(0.3254 -0.9456 0.9456 0.3254 -50.8315 260.6449)" width="1.2001" height="21.5684" id="id_133" style="fill: rgb(255, 255, 255);"></rect>
<path d="M9.8171,201.1083c-6.4092-5.4775-6.2427-14.6992-6.2402-14.791l-1.1992-0.0332
		c-0.0112,0.4004-0.1929,9.8721,6.6514,15.7295c3.417,2.9238,7.9507,4.3926,13.5308,4.3926c2.2485,0,4.6675-0.2393,7.251-0.7168
		l-0.2178-1.1797C20.9768,206.1014,14.323,204.9589,9.8171,201.1083z" id="id_134" style="fill: rgb(255, 255, 255);"></path>
<path d="M1.9143,195.1825l-1.1768,0.2354c0.0249,0.124,2.6533,12.4219,17.6133,14.1035l0.1338-1.1934
		C4.4187,206.7479,2.01,195.6532,1.9143,195.1825z" id="id_135" style="fill: rgb(255, 255, 255);"></path>
<path d="M19.5681,190.1913c-2.3828-1.709-2.6138-5.1299-2.6157-5.1641l-1.1982,0.0693c0.0093,0.1631,0.2588,4.0137,3.1064,6.0645
		c1.1284,0.8125,2.4897,1.2188,4.0684,1.2188c0.9722,0,2.0269-0.1543,3.1602-0.4629l-0.3154-1.1582
		C23.1696,191.4696,21.0827,191.2792,19.5681,190.1913z" id="id_136" style="fill: rgb(255, 255, 255);"></path>
</g>
</svg>