<svg xmlns="http://www.w3.org/2000/svg" viewBox="0 0 64 64"><g id="Line_Icons" data-name="Line Icons"><path d="M62,33A16.94,16.94,0,0,0,51,17.11V14a9,9,0,0,0-9-9H37.87A4,4,0,0,0,34,2H26A13,13,0,0,0,13,15v3H9a1,1,0,0,0-1,1,11,11,0,0,0,5.77,9.68A4,4,0,0,0,16,36h2.08A14.66,14.66,0,0,0,27,48H18c0-4.59.58-4-4-4V41a5,5,0,0,0-5-5H8a1,1,0,0,0-1,1v7H3a1,1,0,0,0-1,1V61a1,1,0,0,0,1,1H47l14.06.06a1,1,0,0,0,.71-.29,1.05,1.05,0,0,0,.29-.71ZM35.09,56.33,38,53.41,44.59,60H35.82Zm7-34.37h0a10.46,10.46,0,1,1,1.31,20.37C32.42,40.52,31.43,25.21,42.05,22Zm-3,26H37.16a13.76,13.76,0,0,0,2.07-1A10.37,10.37,0,0,0,39.07,48ZM40,50h6v8.59L37.41,50Zm8,0H60v2H48ZM60,60H48V54H60Zm0-27,0,15h-19c.24-1.84.76-3,2.28-3.65A12.46,12.46,0,1,0,41.63,20H41a1,1,0,0,1,0-2h4A15,15,0,0,1,60,33ZM10.05,20H20V18H15V15A11,11,0,0,1,26,4h8a2,2,0,0,1,2,2,1,1,0,0,0,1,1h5a7,7,0,0,1,7,7v2.47A20.14,20.14,0,0,0,45.9,16,5.09,5.09,0,0,0,41,12H37c-1,0-1,1-1,1.8a5.37,5.37,0,0,1-.1.78,12,12,0,0,1-1.21,3.54,18.47,18.47,0,0,1-3.23,4.5,16.5,16.5,0,0,1-2.53,2.2l-.59.4a5.83,5.83,0,0,1-.61.39,15,15,0,0,1-1.33.71,4.9,4.9,0,0,1-.46.21c-.45.2-.92.38-1.45.56h0c-.84.22-2.78.64-4.11.85A9.13,9.13,0,0,1,10.05,20ZM14,32a2,2,0,0,1,2-2h2v4H16A2,2,0,0,1,14,32Zm6,2.61V30l.52-.08A19.71,19.71,0,0,0,25,29l.41-.12c.54-.2,1-.38,1.31-.54a5.3,5.3,0,0,0,.56-.25,13.72,13.72,0,0,0,1.47-.79,7.54,7.54,0,0,0,.73-.46c.22-.14.44-.28.63-.42a19.15,19.15,0,0,0,2-1.68c.27-.25.53-.51.77-.77a20,20,0,0,0,2.8-3.6h0l.36-.62a.35.35,0,0,0,.05-.08,5.16,5.16,0,0,0,.34-.65,11.51,11.51,0,0,0,.69-1.57h0a12.26,12.26,0,0,0,.7-2.56A7.86,7.86,0,0,0,38,14c.42,0,3.26-.05,3.6.06A3,3,0,0,1,43.82,16H41a3,3,0,0,0-2.1,5.14c-9.06,5.08-8.19,18.62,1.49,22.44C32.64,51.18,20,45.17,20,34.61ZM26.59,50,18,58.59V50Zm1.59,10H19.41L26,53.41l2.91,2.92ZM9,38a3,3,0,0,1,3,3v3H9ZM4,46H16v2H8v2h8v2H8v2h8v2H8v2h8v2H4ZM30.22,60,31,56.2a1,1,0,0,0-.27-.91L27.41,52l2-2h5.18l2,2-3.3,3.29a1,1,0,0,0-.27.91l.76,3.8Z" id="id_101" style="fill: rgba(0, 0, 0, 0.2);"></path><path d="M24.29,31.29l1.42,1.42a1.81,1.81,0,0,1,2.58,0l1.42-1.42A3.84,3.84,0,0,0,24.29,31.29Z" id="id_102" style="fill: rgba(0, 0, 0, 0.2);"></path><path d="M45,25V23a9,9,0,0,0-9,9h2A7,7,0,0,1,45,25Z" id="id_103" style="fill: rgba(0, 0, 0, 0.2);"></path><path d="M45,41a9,9,0,0,0,9-9H52a7,7,0,0,1-7,7Z" id="id_104" style="fill: rgba(0, 0, 0, 0.2);"></path><path d="M42,32a3,3,0,0,0,6,0A3,3,0,0,0,42,32Zm4,0a1,1,0,0,1-2,0A1,1,0,0,1,46,32Z" id="id_105" style="fill: rgba(0, 0, 0, 0.2);"></path></g></svg>