<svg width="512" height="512" viewBox="0 0 512 512" fill="none" xmlns="http://www.w3.org/2000/svg">
<path d="M220 184H162.052C140.298 184.025 119.442 192.677 104.06 208.06C88.6773 223.442 80.0246 244.298 80 266.052V280C80 282.122 80.8429 284.157 82.3431 285.657C83.8434 287.157 85.8783 288 88 288H96.805C98.6609 297.028 103.573 305.141 110.712 310.97C117.852 316.799 126.783 319.988 136 320H168C173.432 320.002 178.806 318.894 183.794 316.744C188.782 314.595 193.279 311.449 197.008 307.5L208 310.246V312C208.007 318.363 210.538 324.463 215.037 328.963C219.537 333.462 225.637 335.993 232 336C233.486 336 234.942 335.586 236.206 334.805C237.469 334.024 238.491 332.907 239.155 331.578L249.666 310.558C253.821 302.223 255.989 293.038 256 283.725V273.47C263.488 266.291 268.655 257.034 270.837 246.893C273.019 236.752 272.116 226.19 268.243 216.566C264.371 206.942 257.707 198.698 249.109 192.894C240.512 187.09 230.373 183.993 220 184V184ZM168 304H136C131.038 303.994 126.2 302.453 122.148 299.589C118.097 296.724 115.031 292.676 113.371 288H190.629C188.969 292.676 185.903 296.724 181.852 299.589C177.8 302.453 172.962 303.994 168 304V304ZM235.355 303.4L227.688 318.734C226.558 318.011 225.628 317.015 224.983 315.838C224.339 314.662 224.001 313.342 224 312V304C224 302.216 223.404 300.483 222.305 299.077C221.207 297.671 219.671 296.672 217.94 296.239L205.754 293.193C206.353 291.497 206.836 289.762 207.2 288H220C226.863 288.006 233.659 286.647 239.992 284C239.944 290.735 238.358 297.371 235.355 303.4V303.4ZM240 265.917V264C240.001 260.668 239.306 257.373 237.961 254.326C236.616 251.278 234.649 248.544 232.187 246.3C232.577 244.517 233.564 242.92 234.984 241.775C236.405 240.629 238.175 240.003 240 240C242.122 240 244.157 239.157 245.657 237.657C247.157 236.157 248 234.122 248 232C248 229.878 247.157 227.843 245.657 226.343C244.157 224.843 242.122 224 240 224C235.031 224.006 230.187 225.552 226.133 228.425C222.079 231.297 219.015 235.355 217.362 240.041C216.911 240.016 216.457 240 216 240C213.878 240 211.843 240.843 210.343 242.343C208.843 243.843 208 245.878 208 248C208 250.122 208.843 252.157 210.343 253.657C211.843 255.157 213.878 256 216 256C218.121 256.002 220.154 256.846 221.654 258.346C223.154 259.846 223.998 261.879 224 264V271.772C222.686 271.918 152 272 152 272C151.99 263.516 148.616 255.382 142.617 249.383C136.618 243.384 128.484 240.01 120 240C117.878 240 115.843 240.843 114.343 242.343C112.843 243.843 112 245.878 112 248C112 250.122 112.843 252.157 114.343 253.657C115.843 255.157 117.878 256 120 256C124.242 256.005 128.309 257.692 131.308 260.692C134.308 263.691 135.995 267.758 136 272H96V266.052C96.0218 248.898 102.71 232.423 114.652 220.108C126.594 207.793 142.854 200.602 160 200.052V206.702L157.47 214.291C156.53 217.12 154.723 219.581 152.305 221.323C149.887 223.066 146.981 224.003 144 224C141.878 224 139.843 224.843 138.343 226.343C136.843 227.843 136 229.878 136 232C136 234.122 136.843 236.157 138.343 237.657C139.843 239.157 141.878 240 144 240C148.291 240.003 152.533 239.091 156.444 237.323C160.354 235.555 163.842 232.974 166.674 229.75C171.986 238.151 180.042 244.455 189.474 247.59C190.471 247.922 191.523 248.055 192.571 247.98C193.619 247.906 194.642 247.626 195.582 247.156C196.522 246.686 197.36 246.036 198.048 245.242C198.736 244.448 199.262 243.527 199.594 242.53C199.926 241.533 200.059 240.481 199.984 239.433C199.91 238.385 199.63 237.362 199.16 236.422C198.69 235.482 198.04 234.644 197.246 233.956C196.452 233.268 195.531 232.742 194.534 232.41C189.134 230.617 184.437 227.168 181.109 222.552C177.782 217.937 175.994 212.39 176 206.7V200H220C227.723 199.997 235.241 202.479 241.445 207.078C247.649 211.677 252.208 218.15 254.451 225.54C256.693 232.93 256.498 240.845 253.896 248.116C251.294 255.387 246.422 261.628 240 265.917V265.917Z" fill="#ffffff" id="id_101"></path>
<path d="M183.026 136.034C182.02 136.011 181.011 136 180 136C107.215 136 47.9999 195.215 47.9999 268V294.357L24.6469 348.849C23.8433 350.724 23.7866 352.836 24.4883 354.751C25.19 356.667 26.5972 358.242 28.4219 359.155L56.5299 373.209L64.0489 440.884C64.2664 442.841 65.1978 444.648 66.6647 445.961C68.1317 447.274 70.0312 448 71.9999 448H130.234L144.411 490.53C144.768 491.603 145.349 492.587 146.115 493.419C146.88 494.251 147.814 494.911 148.853 495.356C149.892 495.801 151.014 496.02 152.145 496C153.275 495.98 154.388 495.72 155.411 495.238L291.411 431.238C293.129 430.43 294.503 429.037 295.288 427.308C296.073 425.58 296.218 423.628 295.697 421.803L285.853 387.345C282.26 374.818 282.469 361.507 286.453 349.099L301.053 303.465C307.248 284.368 308.859 264.082 305.757 244.246C302.654 224.411 294.924 205.586 283.194 189.293C271.851 173.175 256.872 159.955 239.47 150.702C222.067 141.45 202.731 136.425 183.026 136.034V136.034ZM285.812 298.588L271.212 344.222C266.263 359.638 266.003 376.176 270.466 391.74L278.442 419.657L156.742 476.927L145.153 442.161L189.653 397.661C190.397 396.918 190.987 396.036 191.39 395.064C191.793 394.093 192 393.052 192 392V352H176V388.687L132.686 432H79.1599L71.9509 367.116C71.8033 365.789 71.3258 364.52 70.562 363.424C69.7981 362.329 68.7723 361.442 67.5779 360.845L42.3249 348.218C42.3249 348.218 63.9999 297.083 63.9999 296V268C64.0348 237.246 76.2674 207.761 98.0141 186.014C119.761 164.268 149.246 152.035 180 152C180.891 152 181.779 152.01 182.664 152.03C199.879 152.375 216.771 156.769 231.973 164.856C247.174 172.943 260.257 184.496 270.164 198.58C280.44 212.851 287.212 229.341 289.931 246.715C292.649 264.09 291.238 281.86 285.812 298.588V298.588Z" fill="#ffffff" id="id_102"></path>
<path d="M392 16C374.709 16.0028 357.741 20.6744 342.885 29.5215C328.03 38.3687 315.84 51.0631 307.601 66.2642C299.362 81.4654 295.381 98.6092 296.078 115.885C296.775 133.162 302.124 149.929 311.561 164.417L304.308 189.8C303.944 191.071 303.902 192.413 304.184 193.705C304.466 194.997 305.064 196.199 305.925 197.203C306.785 198.207 307.881 198.982 309.114 199.459C310.347 199.936 311.68 200.1 312.992 199.936L345.319 195.895C358.13 203.021 372.403 207.118 387.043 207.873C401.684 208.627 416.302 206.019 429.778 200.247C443.254 194.476 455.229 185.695 464.785 174.578C474.341 163.46 481.224 150.302 484.906 136.112C488.588 121.923 488.972 107.078 486.027 92.7171C483.082 78.3561 476.888 64.8602 467.919 53.2645C458.95 41.6687 447.444 32.2812 434.284 25.8217C421.124 19.3622 406.659 16.0024 392 16V16ZM392 192C377.598 192.009 363.461 188.124 351.087 180.756C349.556 179.844 347.765 179.469 345.997 179.688L323.017 182.561L327.976 165.206C328.306 164.051 328.372 162.836 328.168 161.651C327.964 160.467 327.496 159.344 326.799 158.365C316.404 143.75 311.223 126.066 312.085 108.152C312.948 90.2381 319.805 73.1338 331.556 59.5849C343.306 46.036 359.268 36.8285 376.88 33.4404C394.492 30.0524 412.731 32.6805 428.67 40.9027C444.608 49.125 457.322 62.4644 464.769 78.7795C472.217 95.0946 473.966 113.439 469.736 130.868C465.506 148.296 455.543 163.798 441.445 174.884C427.348 185.971 409.934 191.998 392 192V192Z" fill="#ffffff" id="id_103"></path>
<path d="M432 96H422.129L438.86 68.116C439.588 66.902 439.982 65.5165 439.999 64.1009C440.017 62.6853 439.659 61.2903 438.962 60.0584C438.264 58.8264 437.252 57.8017 436.029 57.0887C434.806 56.3757 433.416 56 432 56H376C374.074 56.0001 372.214 56.6947 370.759 57.9563C369.304 59.2179 368.353 60.9618 368.081 62.868L360.081 118.868C359.919 120.003 360.002 121.159 360.326 122.258C360.649 123.358 361.206 124.375 361.956 125.241C362.707 126.107 363.636 126.802 364.678 127.278C365.721 127.754 366.854 128 368 128H374.556L368.109 166.685C367.823 168.402 368.104 170.165 368.911 171.707C369.718 173.25 371.005 174.487 372.578 175.232C374.152 175.976 375.925 176.187 377.629 175.833C379.333 175.478 380.875 174.578 382.021 173.268L438.021 109.268C439.033 108.111 439.691 106.688 439.915 105.167C440.139 103.647 439.92 102.094 439.285 100.694C438.65 99.2945 437.625 98.1075 436.333 97.275C435.041 96.4426 433.537 95.9999 432 96ZM401.039 107.941C401.736 109.173 402.748 110.198 403.971 110.911C405.194 111.624 406.584 112 408 112H414.37L388.52 141.543L391.891 121.315C392.082 120.169 392.021 118.995 391.712 117.875C391.404 116.755 390.855 115.715 390.104 114.829C389.353 113.942 388.418 113.23 387.364 112.742C386.31 112.253 385.162 112 384 112H377.224L382.938 72H417.871L401.14 99.884C400.412 101.098 400.019 102.483 400.001 103.899C399.983 105.314 400.341 106.709 401.039 107.941V107.941Z" fill="#ffffff" id="id_104"></path>
<path d="M271.879 52.283L260.948 73.114L232.6 80.241C231.321 80.5625 230.141 81.1952 229.166 82.0827C228.191 82.9702 227.45 84.0851 227.01 85.328L216.459 115.1C216.108 116.09 215.956 117.14 216.01 118.189C216.065 119.238 216.326 120.266 216.778 121.215C217.231 122.163 217.865 123.013 218.646 123.716C219.426 124.419 220.338 124.962 221.328 125.312C222.319 125.663 223.368 125.816 224.417 125.761C225.467 125.706 226.495 125.445 227.443 124.993C228.391 124.541 229.241 123.906 229.944 123.125C230.647 122.345 231.19 121.433 231.541 120.443L240.656 94.713L268.32 87.759C269.412 87.4842 270.433 86.9821 271.318 86.2856C272.203 85.5891 272.93 84.7139 273.454 83.717L286.047 59.717C287.023 57.8391 287.216 55.6507 286.582 53.6311C285.949 51.6115 284.541 49.9253 282.666 48.9418C280.792 47.9584 278.604 47.7578 276.582 48.384C274.56 49.0103 272.869 50.4123 271.879 52.283V52.283Z" fill="#ffffff" id="id_105"></path>
<path d="M361.931 322.261L362.162 293.028C362.173 291.709 361.857 290.409 361.243 289.242C360.63 288.074 359.737 287.077 358.645 286.338L332.482 268.644C331.612 268.05 330.633 267.634 329.602 267.419C328.57 267.205 327.507 267.196 326.472 267.393C325.437 267.591 324.452 267.991 323.572 268.57C322.692 269.149 321.935 269.897 321.345 270.769C320.755 271.642 320.343 272.622 320.133 273.655C319.922 274.687 319.918 275.751 320.12 276.785C320.322 277.818 320.726 278.802 321.309 279.68C321.892 280.557 322.643 281.311 323.518 281.897L346.129 297.189L345.903 325.713C345.895 326.839 346.124 327.954 346.575 328.985C347.027 330.016 347.691 330.941 348.524 331.698L368.586 349.922C369.364 350.628 370.273 351.175 371.262 351.53C372.251 351.885 373.3 352.041 374.349 351.991C375.398 351.941 376.428 351.684 377.378 351.236C378.328 350.788 379.181 350.157 379.887 349.379C380.593 348.601 381.14 347.692 381.495 346.703C381.85 345.715 382.006 344.665 381.956 343.616C381.906 342.567 381.649 341.538 381.201 340.587C380.753 339.637 380.122 338.784 379.344 338.078L361.931 322.261Z" fill="#ffffff" id="id_106"></path>
<path d="M413.977 240.26L387.816 247.1L367.059 226.343C366.162 225.446 365.065 224.776 363.858 224.386C362.651 223.997 361.368 223.9 360.117 224.104L329.517 229.083C327.422 229.424 325.549 230.583 324.309 232.304C323.069 234.026 322.564 236.17 322.905 238.264C323.246 240.359 324.405 242.232 326.127 243.472C327.849 244.712 329.992 245.217 332.087 244.876L358.64 240.555L379.74 261.655C380.727 262.642 381.955 263.354 383.302 263.719C384.65 264.084 386.069 264.091 387.42 263.738L418.02 255.738C420.072 255.201 421.828 253.871 422.9 252.04C423.972 250.21 424.273 248.028 423.737 245.975C423.2 243.922 421.87 242.167 420.039 241.094C418.208 240.022 416.026 239.721 413.974 240.258L413.977 240.26Z" fill="#ffffff" id="id_107"></path>
<path d="M154.366 97.3L171.846 120.244C172.483 121.08 173.278 121.782 174.186 122.31C175.094 122.839 176.098 123.183 177.139 123.323C178.181 123.464 179.239 123.398 180.255 123.13C181.271 122.861 182.224 122.395 183.06 121.758C183.895 121.121 184.598 120.326 185.126 119.418C185.654 118.509 185.999 117.506 186.139 116.465C186.28 115.423 186.214 114.364 185.945 113.349C185.677 112.333 185.211 111.38 184.574 110.544L169.465 90.721L174.937 70.047C175.248 68.8691 175.287 67.6357 175.049 66.4408C174.812 65.2459 174.304 64.121 173.566 63.152L156.086 40.208C154.799 38.5203 152.895 37.4127 150.792 37.1288C148.69 36.845 146.56 37.4082 144.872 38.6945C143.185 39.9808 142.077 41.8848 141.793 43.9878C141.509 46.0907 142.072 48.2203 143.359 49.908L158.468 69.74L153 90.409C152.688 91.5858 152.649 92.8182 152.886 94.0124C153.123 95.2066 153.629 96.331 154.366 97.3V97.3Z" fill="#ffffff" id="id_108"></path>
</svg>