<svg xmlns="http://www.w3.org/2000/svg" viewBox="0 0 223.63 223.63"><title>Innovative_mind</title><g id="Innovative_mind"><path d="M114.12,19.82a4.54,4.54,0,1,0-4.53,4.53A4.53,4.53,0,0,0,114.12,19.82Z" id="id_101" style="fill: rgba(0, 0, 0, 0.2);"></path><path d="M204.44,67.74a15.72,15.72,0,0,0-15.2,13.16h-9.68a2.82,2.82,0,0,0-2.68,2.89V98.9H157.61a51.82,51.82,0,0,0-24.08-28.44c-1.21-.66-2.68-1.33-3.95-1.88a47.59,47.59,0,0,0-17.7-4.18V39.9h3.64a2.23,2.23,0,0,0,2.36-2.49V32.14c0-.15.29-.31.47-.44A15.29,15.29,0,0,0,107.92,3.93a15.36,15.36,0,0,0-7.19,27.79c.16.11.15.27.15.42v5.27a2.75,2.75,0,0,0,3,2.49h3V64.41c-21,1.12-38.77,15.49-45.32,34.49H46.88V83.79A3,3,0,0,0,44,80.9H34.36a15.72,15.72,0,0,0-15.2-13.16A15.27,15.27,0,0,0,4,83.12C4,88.27,5.88,93,10.88,95.88v5.51a2.32,2.32,0,0,0,2.46,2.51H25a2.68,2.68,0,0,0,2.89-2.51V95.88a18.35,18.35,0,0,0,6.25-9h6.75v14.49c0,1.52,1.6,2.51,3.12,2.51H60a59.73,59.73,0,0,0-1.11,8l0,.12v5.83l-9,25a3.75,3.75,0,0,0,3.58,5h5.46l0,28.6a10.36,10.36,0,0,0,10.09,10.4h33.3a2.51,2.51,0,1,1,0,5H87.88v20.4a7.49,7.49,0,0,0,7.38,7.6h46.41a7.35,7.35,0,0,0,7.21-7.6V159.51a44.65,44.65,0,0,1,5.47-20.79,50.45,50.45,0,0,0,5.9-22.41c0-.4.05-.81.05-1.23,0-.79,0-1.7,0-2.49a54.9,54.9,0,0,0-1.13-8.69h20.41a2.22,2.22,0,0,0,2.32-2.51V86.9h7.59a18.71,18.71,0,0,0,6.41,9v5.51a2.54,2.54,0,0,0,2.73,2.51h11.65a2.44,2.44,0,0,0,2.62-2.51V95.88a16,16,0,0,0,6.84-12.76A15.33,15.33,0,0,0,204.44,67.74ZM104.15,27.22a9.76,9.76,0,1,1,11.27,0,6,6,0,0,0-2.54,4.93V34.9h-6V32.14A6.21,6.21,0,0,0,104.15,27.22ZM28.41,86.54a10.14,10.14,0,0,1-4.87,5.34,3,3,0,0,0-1.66,2.44V98.9h-6V94.32a2.67,2.67,0,0,0-1.38-2.44,9.77,9.77,0,0,1-5.25-8.72,9.88,9.88,0,0,1,19.75,0A9.77,9.77,0,0,1,28.41,86.54Zm115.18,17.54A16.59,16.59,0,0,1,127,118.9H90.34a16.58,16.58,0,0,1-16.55-14.82,12,12,0,0,1-.1-1.59,14.5,14.5,0,0,1,.42-3.59h0a.71.71,0,0,0,0-.15A16.72,16.72,0,0,1,94.88,86.39a15.87,15.87,0,0,1,12-10.36h0a15,15,0,0,1,3.53-.33c.66,0,1.3.19,1.94.19h0c6,1,11.09,4.56,13.38,10,.44,0,.88-.1,1.32-.1a16.62,16.62,0,0,1,16.22,12.89,16.3,16.3,0,0,1,.43,3.71A13.83,13.83,0,0,1,143.59,104.08Zm65.58-12.2a2.6,2.6,0,0,0-1.29,2.44V98.9h-7V94.32a2.56,2.56,0,0,0-1.24-2.44,5.23,5.23,0,0,1-.56-.4,1.79,1.79,0,0,1-.31-.25,8.07,8.07,0,0,1-1.37-1.17c-.12-.11-.22-.23-.33-.35a1.09,1.09,0,0,1-.13-.17c-.16-.18-.31-.36-.45-.55a.3.3,0,0,0-.07-.1,8.09,8.09,0,0,1-.46-.73,6,6,0,0,1-.42-.79,8.58,8.58,0,0,1-.35-.83c-.09-.23-.16-.47-.23-.71s-.13-.49-.18-.74-.05-.24-.06-.36-.07-.46-.09-.69a8.51,8.51,0,0,1,0-.88,9.77,9.77,0,0,1,.06-1.08c0-.18,0-.35.07-.52s.07-.38.11-.57.11-.45.18-.67c0-.06,0-.13.07-.2a4,4,0,0,1,.2-.58c.09-.22.18-.43.29-.65l.17-.34c.09-.17.18-.33.28-.49a3.42,3.42,0,0,1,.26-.4A9.5,9.5,0,0,1,197.67,76c.16-.16.33-.31.51-.46a.18.18,0,0,1,.07,0,5.23,5.23,0,0,1,.55-.41,9,9,0,0,1,1.37-.81l.38-.17a4.08,4.08,0,0,1,.54-.22,7.41,7.41,0,0,1,.8-.25c.26-.07.53-.13.8-.18h.05a7.53,7.53,0,0,1,.83-.11,8.44,8.44,0,0,1,.87,0,9.94,9.94,0,0,1,9.94,9.85A9.74,9.74,0,0,1,209.17,91.88Z" id="id_102" style="fill: rgba(0, 0, 0, 0.2);"></path><path d="M204.33,79.25a4.54,4.54,0,1,0,4.54,4.53A4.53,4.53,0,0,0,204.33,79.25Z" id="id_103" style="fill: rgba(0, 0, 0, 0.2);"></path><path d="M19.06,79.25a4.54,4.54,0,1,0,4.54,4.53A4.54,4.54,0,0,0,19.06,79.25Z" id="id_104" style="fill: rgba(0, 0, 0, 0.2);"></path><path d="M24.83,107.9H13.18a3,3,0,0,0,0,6H24.83a3,3,0,0,0,0-6Z" id="id_105" style="fill: rgba(0, 0, 0, 0.2);"></path><path d="M210.16,107.9H198.51a3,3,0,0,0,0,6h11.65a3,3,0,0,0,0-6Z" id="id_106" style="fill: rgba(0, 0, 0, 0.2);"></path><path d="M117.66,95.9h-7.07l4.29-11.39a1.44,1.44,0,0,0-.09-1c-.14-.21-.39-.61-.64-.61h-6.93c-.34,0-.64.41-.75.73l-5.84,17.87a1.24,1.24,0,0,0,.11.89c.15.2.39.51.64.51h6.89l-3.52,9.84a.79.79,0,0,0,.43,1,1,1,0,0,0,1.15-.32l12-16.64a.52.52,0,0,0,.06-.65C118.22,95.9,118,95.9,117.66,95.9Z" id="id_107" style="fill: rgba(0, 0, 0, 0.2);"></path></g></svg>