<svg width="122.87999999999998" height="92.69" xmlns="http://www.w3.org/2000/svg" data-name="Layer 1">
 <title>design-thinking</title>

 <g>
  <title>Layer 1</title>
  <path fill-opacity="0.2" fill="#000000" id="svg_1" d="m121.38385,23.56441l0,60.41l-22.94,0l0,-60.41l-0.1,0l0.78,-1.58l9.5,-19.48l1,-2l1,1.95l10,19.49l0.84,1.62l-0.08,0zm-118.76,37.89l0.12,-0.17a11.54,11.54 0 0 1 1.27,-1a12.69,12.69 0 0 1 2.91,-1.36a20.42,20.42 0 0 1 2.7,-0.73l0,-62.83a7,7 0 0 0 -5.59,3.83c-1.12,2.18 -1.41,5.09 -1.41,8.09c-0.24,12.28 -0.16,24.68 -0.07,37c0,5.9 0.07,11.8 0.08,17.17l-0.01,0zm54.79,-47.94a1.75,1.75 0 0 1 0.62,-1.23a1.78,1.78 0 0 1 1.27,-0.42l0,0l0.12,0a1.76,1.76 0 0 1 1.53,1.87l0,0a0.25,0.25 0 0 1 0,0.09l-0.33,3.81l0,0a0.49,0.49 0 0 1 0,0.12a1.76,1.76 0 0 1 -0.61,1.11a1.78,1.78 0 0 1 -1.27,0.42l-0.12,0a1.76,1.76 0 0 1 -1.52,-1.88l0,0a0.28,0.28 0 0 1 0,-0.09l0.3,-3.79l0.01,-0.01zm-1.07,15.7a3.64,3.64 0 0 1 2.28,-1.52a3.85,3.85 0 0 1 2.46,0.35a4.09,4.09 0 0 1 1.74,1.68a3.19,3.19 0 0 1 0.31,0.77a4,4 0 0 1 1.17,0.21a5,5 0 0 1 2.17,1.5a4.89,4.89 0 0 1 1.15,2.6a4.76,4.76 0 0 1 -0.06,1.35a5.28,5.28 0 0 1 1,1.26a4.37,4.37 0 0 1 0.63,2.37a4.16,4.16 0 0 1 -0.86,2.42a5.6,5.6 0 0 1 -1.35,1.3a5.36,5.36 0 0 1 -0.93,3.21a4.35,4.35 0 0 1 -2.62,1.83a4.23,4.23 0 0 1 -4.94,2.86a3.41,3.41 0 0 1 -2,-1.57a3.68,3.68 0 0 1 -2.33,1.64a3.87,3.87 0 0 1 -3.14,-0.78a3.75,3.75 0 0 1 -1.4,-2.09a3.73,3.73 0 0 1 -1,-0.2l0,0a5,5 0 0 1 -2.08,-1.44a4.91,4.91 0 0 1 -1.16,-2.5a4.68,4.68 0 0 1 0,-1.49a5.49,5.49 0 0 1 -0.93,-1.12l0,-0.08a4.47,4.47 0 0 1 -0.64,-2.33l0,0a4.3,4.3 0 0 1 0.81,-2.55a5.92,5.92 0 0 1 1.31,-1.28l0,-0.39a5.24,5.24 0 0 1 1.17,-3.16a4.24,4.24 0 0 1 2.52,-1.52a3.58,3.58 0 0 1 0.11,-0.35a4,4 0 0 1 1.74,-2a3.84,3.84 0 0 1 2.68,-0.47a3.62,3.62 0 0 1 2.24,1.52l-0.05,-0.03zm6.72,3.17a3.94,3.94 0 0 1 -0.76,1.31a0.94,0.94 0 1 1 -1.44,-1.21a1.6,1.6 0 0 0 0.27,-1.86a2.16,2.16 0 0 0 -0.93,-0.89a1.94,1.94 0 0 0 -1.22,-0.19c-0.69,0.15 -1.36,0.79 -1.71,2.21l0,0l0,15.15a0.92,0.92 0 0 1 0.31,0.56c0.22,1.32 0.77,2 1.39,2.12a2.14,2.14 0 0 0 1.78,-0.42a2,2 0 0 0 0.87,-1.48c0,-0.65 -0.49,-1.39 -1.81,-2.07a0.95,0.95 0 0 1 0.85,-1.69a5,5 0 0 1 2.66,2.67a2.58,2.58 0 0 0 1.12,-1a3.52,3.52 0 0 0 0.57,-2.45l0,0a0.94,0.94 0 0 1 0.46,-0.94a4.32,4.32 0 0 0 1.3,-1.11a2.45,2.45 0 0 0 0.5,-1.36a2.54,2.54 0 0 0 -0.38,-1.37a3.81,3.81 0 0 0 -1,-1.08a0.94,0.94 0 0 1 -0.37,-1.09a2.62,2.62 0 0 0 0.13,-1.19a2.91,2.91 0 0 0 -0.69,-1.57a3,3 0 0 0 -1.34,-0.94a1.86,1.86 0 0 0 -0.6,-0.11l0.04,0zm-2,4.18a1,1 0 0 1 -0.18,-1.28a1,1 0 0 1 1.33,-0.22c0.16,0.12 0.31,0.25 0.46,0.38l0,0a5.36,5.36 0 0 1 1.74,3.52a5.67,5.67 0 0 1 -1.07,3.75q-0.18,0.24 -0.39,0.48a0.95,0.95 0 1 1 -1.41,-1.27a4,4 0 0 0 0.26,-0.32a3.76,3.76 0 0 0 0.72,-2.49a3.48,3.48 0 0 0 -1.12,-2.27l0,0l-0.3,-0.24l-0.04,-0.04zm-5.35,10.36l0,-14.64l-0.09,0l0,0l0,0l0,0l0,0l0,0l0,0l0,0l0,0l0,0l0,0l0,0l0,0c-0.35,-1.42 -1,-2.07 -1.71,-2.22a1.93,1.93 0 0 0 -1.34,0.26a2,2 0 0 0 -0.91,1a1.74,1.74 0 0 0 0.64,1.92a1,1 0 0 1 0.05,1.33a1,1 0 0 1 -1.34,0a4.22,4.22 0 0 1 -1.39,-2.11a2.46,2.46 0 0 0 -1.11,0.8a3.42,3.42 0 0 0 -0.74,2a4,4 0 0 0 0,0.68a0.93,0.93 0 0 1 -0.44,0.93a4.59,4.59 0 0 0 -1.27,1.12a2.44,2.44 0 0 0 -0.5,1.43a2.51,2.51 0 0 0 0.37,1.34l0,0.06a3.53,3.53 0 0 0 0.91,1a1,1 0 0 1 0.36,1.09a2.68,2.68 0 0 0 -0.12,1.27a3,3 0 0 0 0.71,1.52a3.13,3.13 0 0 0 1.27,0.9l0,0a2.42,2.42 0 0 0 0.45,0.1a5.17,5.17 0 0 1 2.77,-2.78a0.94,0.94 0 0 1 1.27,0.41a1,1 0 0 1 -0.42,1.27c-1.39,0.71 -1.92,1.51 -1.92,2.21a1.79,1.79 0 0 0 0.76,1.37a2,2 0 0 0 1.59,0.43c0.69,-0.14 1.36,-0.8 1.71,-2.23a0.92,0.92 0 0 1 0.29,-0.47l0.15,0.01zm-5.86,-11.36a0.94,0.94 0 0 1 1.32,1.35a3.38,3.38 0 0 0 -1,2.31a3.73,3.73 0 0 0 0.84,2.5a0.95,0.95 0 0 1 -1.47,1.19a5.61,5.61 0 0 1 -1.26,-3.77a5.27,5.27 0 0 1 1.59,-3.58l-0.02,0zm-5.86,17.54c-0.7,-0.89 -1.37,-1.82 -2.09,-2.82a20.36,20.36 0 0 1 -1.91,-3.61a21.55,21.55 0 0 1 -1.2,-4.13a18.24,18.24 0 0 1 -0.25,-4.26a18.76,18.76 0 0 1 0.83,-4.34a21.9,21.9 0 0 1 2,-4.37l0.1,-0.15a17.61,17.61 0 0 1 3.77,-4.08a16.67,16.67 0 0 1 4.85,-2.64l0.09,0a17.5,17.5 0 0 1 4.12,-0.87a18.6,18.6 0 0 1 4.41,0.14a19.84,19.84 0 0 1 4.17,1.09a19.45,19.45 0 0 1 3.82,2a18.15,18.15 0 0 1 4.1,3.77a16.15,16.15 0 0 1 2.61,4.75a17.67,17.67 0 0 1 0.77,3a17.55,17.55 0 0 1 -0.26,7a19.66,19.66 0 0 1 -1.3,3.59a40.24,40.24 0 0 1 -5.21,7.49c-1,1.3 -2.09,2.59 -2.93,3.78a1.09,1.09 0 0 1 -1.15,0.43l0,0l-15.21,1.41a1.09,1.09 0 0 1 -1.14,-0.8a23,23 0 0 0 -1.36,-3.59a15.14,15.14 0 0 0 -1.67,-2.79l0.04,0zm-0.27,-4c0.62,1 1.31,1.83 2,2.69a17.39,17.39 0 0 1 1.9,3.18a27.34,27.34 0 0 1 1.19,3.06l14.23,-1.32c0.83,-1.15 1.74,-2.27 2.66,-3.41a38.61,38.61 0 0 0 4.92,-7.02a16.73,16.73 0 0 0 1.14,-3.21a14.9,14.9 0 0 0 0.44,-3.22a15.52,15.52 0 0 0 -0.2,-2.92a16.59,16.59 0 0 0 -0.67,-2.65a14,14 0 0 0 -2.25,-4.11a15.82,15.82 0 0 0 -3.61,-3.31a17.41,17.41 0 0 0 -3.38,-1.74a17.74,17.74 0 0 0 -3.72,-1a17,17 0 0 0 -3.9,-0.12a15.68,15.68 0 0 0 -3.6,0.75l-0.09,0a14.31,14.31 0 0 0 -4.22,2.28a15.47,15.47 0 0 0 -3.31,3.59l0,0a18.62,18.62 0 0 0 -1.79,3.92a16.17,16.17 0 0 0 -0.72,3.82a15.65,15.65 0 0 0 0.22,3.74a18.91,18.91 0 0 0 1.07,3.69a18.08,18.08 0 0 0 1.71,3.23l-0.02,0.08zm19.28,19.59a8.8,8.8 0 0 1 -3.38,3a7.92,7.92 0 0 1 -7.46,0a7.72,7.72 0 0 1 -2.15,-1.79l13,-1.22l-0.01,0.01zm1.62,-7.14l0,0.85l0,0.29a11.53,11.53 0 0 1 -0.07,1.66l-0.32,1.2l-15.76,1.47l-0.24,-0.64l-0.47,-2.53l0,-0.72l16.86,-1.58zm-28,-41.61a1.77,1.77 0 0 1 1.31,-3a1.74,1.74 0 0 1 1.24,0.54l2.73,2.8a1.77,1.77 0 0 1 -1.28,3a1.78,1.78 0 0 1 -1.24,-0.54l-2.76,-2.8zm-5.67,19.25a1.8,1.8 0 0 1 -1.22,-0.55a1.78,1.78 0 0 1 -0.49,-1.27a1.75,1.75 0 0 1 0.55,-1.24a1.78,1.78 0 0 1 1.27,-0.49l3.88,0.08a1.75,1.75 0 0 1 1.24,0.55a1.8,1.8 0 0 1 0.49,1.27l0,0l0,0l0,0.06a1.71,1.71 0 0 1 -0.54,1.15a1.76,1.76 0 0 1 -1.27,0.49l-0.07,0l-3.83,-0.08l-0.01,0.03zm50.88,-2.81l0.06,0a1.73,1.73 0 0 1 1.2,0.46a1.77,1.77 0 0 1 0.58,1.22l0,0.08a1.78,1.78 0 0 1 -0.46,1.2a1.73,1.73 0 0 1 -1.23,0.58l-3.87,0.2a1.79,1.79 0 0 1 -1.28,-0.46a1.73,1.73 0 0 1 -0.58,-1.23a1.79,1.79 0 0 1 0.46,-1.27a1.73,1.73 0 0 1 1.23,-0.58c1.29,-0.07 2.59,-0.15 3.89,-0.2zm-6.79,-15.84a1.81,1.81 0 0 1 1.17,-0.69a1.79,1.79 0 0 1 1.31,0.34l0,0a1.76,1.76 0 0 1 0.68,1.17a1.74,1.74 0 0 1 -0.33,1.31l-2.33,3.11a1.77,1.77 0 0 1 -2.48,0.35a1.75,1.75 0 0 1 -0.69,-1.17a1.71,1.71 0 0 1 0.34,-1.31l2.33,-3.11zm-61.48,39.4a1.9,1.9 0 0 1 -0.47,1.16a2,2 0 0 1 -1.19,0.66l0,0a23.66,23.66 0 0 0 -3.12,0.68a9.72,9.72 0 0 0 -2.57,1.17l0,0a8,8 0 0 0 -2,1.87a13.24,13.24 0 0 0 -1.63,3a16.61,16.61 0 0 0 0.33,4.27a9.23,9.23 0 0 0 1.42,3.39l0,0a8.32,8.32 0 0 0 2.75,2.41l0,0a14.17,14.17 0 0 0 4.38,1.43l79.45,0l0,3.94l-79.55,0a12.42,12.42 0 0 1 -5.61,-1.64a13.81,13.81 0 0 1 -4.64,-3.9a13,13 0 0 1 -2,-4.74a20.92,20.92 0 0 1 -0.49,-5.62l0,-50.2c0,-1.49 0,-2.54 0,-3.54c0,-2.88 0,-5.8 0.06,-8.59c0.15,-3.68 0.68,-7.19 2.51,-9.84s4.97,-4.47 10.21,-4.57l0.22,0a2,2 0 0 1 1.39,0.57a2,2 0 0 1 0.61,1.43l0,9l86.7,0l-1.91,4l-84.79,0l0,53.54l0,0.12l-0.06,0zm88.34,-38.61l16,0l-6.38,-12.24l-3.67,0l-6,12.24l0.05,0z"/>
 </g>
</svg>